# xmcd
#
# Track frame offsets: 
#        150
#        19023
#        37521
#        50844
#        65892
#        86490
#        102363
#        116736
#        134034
#        147282
#        161805
#        180528
#        189276
#        204999
#        218097
#        236520
#
# Disc length: 3311 seconds
#
# Revision: 0
# Processed by: cddbd v1.5.2PL0 Copyright (c) Steve Scherf et al.
# Submitted via: ExactAudioCopyFreeDBPlugin 1.0
#
DISCID=e40ced10
DTITLE=David 'Honeyboy' Edwards - White Windows
DYEAR=2007
DGENRE=Blues
TTITLE0=West Helena Blues 
TTITLE1=Don't Say I Don't Love You 
TTITLE2=Build Myself a Cave
TTITLE3=Don't You Lie to Me
TTITLE4=61 Highway
TTITLE5=Drop Down Mama
TTITLE6=Shake 'Em on Down
TTITLE7=Take a Little Walk with Me
TTITLE8=The War Is Over 
TTITLE9=Roll and Tumble Blues 
TTITLE10=Goin' Down Slow 
TTITLE11=Lay My Burden Down 
TTITLE12=Been So Long Since I Laughed and Talked with You
TTITLE13=Linda Lou
TTITLE14=Things I Used to Do
TTITLE15=Who May Be Your Regular Be
EXTD=
EXTT0=
EXTT1=
EXTT2=
EXTT3=
EXTT4=
EXTT5=
EXTT6=
EXTT7=
EXTT8=
EXTT9=
EXTT10=
EXTT11=
EXTT12=
EXTT13=
EXTT14=
EXTT15=
PLAYORDER=
